# xmcd CD database file
#
# Track frame offsets:
#	150
#	35883
#	66438
#	93500
#	123678
#	151913
#	194198
#	243705
#	263665
#	284643
#	306720
#	325880
#
# Disc length: 4719 seconds
#
# Revision: 2
# Processed by: cddbd v1.4PL0 Copyright (c) Steve Scherf et al.
# Submitted via: CDex 1.50Beta5
#
DISCID=c9126d0c
DTITLE=Various Artist - The Modern Jazz
DYEAR=1900
DGENRE=Jazz
TTITLE0=Modern Jazz Quartet - Softly, As In A Morning Sunrise
TTITLE1=Sonny Rollins - St. Thomas
TTITLE2=Miles Davis - My Funny Valentine
TTITLE3=Thelonious Monk - 'Round Midnight
TTITLE4=John Coltrane - Violets For Your Furs
TTITLE5=Sonny Clark - Cool Struttin'
TTITLE6=Cannonball Adderley - Autumn Leaves
TTITLE7=Bud Powell - Cleopatra's Dream
TTITLE8=Kenny Dorham - Lotus Blossom
TTITLE9=Bill Evans - Someday My Prince Will Come
TTITLE10=Nat Adderley - Work Song
TTITLE11=Wes Montgomery - Four On Six
EXTD=
EXTT0=
EXTT1=
EXTT2=
EXTT3=
EXTT4=
EXTT5=
EXTT6=
EXTT7=
EXTT8=
EXTT9=
EXTT10=
EXTT11=
PLAYORDER=
